<?xml version="1.0" encoding="utf-8"?><svg id="Layer_1" data-name="Layer 1" xmlns="http://www.w3.org/2000/svg" viewBox="0 0 577.17 960.67"><defs><style>.c0{fill:rgb(29, 23, 79);}.cls-1,.cls-2{fill:none;}.cls-1{stroke:rgb(29, 23, 79);stroke-miterlimit:10;stroke-width:2px;}</style></defs><circle class="c0" cx="525.45" cy="834.02" r="7"/><circle class="c0" cx="321.45" cy="774.02" r="7"/><circle class="c0" cx="262.45" cy="673.02" r="7"/><circle class="c0" cx="251.45" cy="932.02" r="7"/><circle class="c0" cx="449.45" cy="540.02" r="7"/><circle class="c0" cx="559.45" cy="155.02" r="7"/><circle class="c0" cx="506.45" cy="643.02" r="7"/><circle class="c0" cx="408.45" cy="683.02" r="7"/><line class="cls-1" x1="525.45" y1="835.02" x2="252.45" y2="931.02"/><line class="cls-1" x1="524.45" y1="834.02" x2="322.45" y2="775.02"/><line class="cls-1" x1="525.45" y1="835.02" x2="409.45" y2="684.02"/><line class="cls-1" x1="439.45" y1="1006.02" x2="253.45" y2="932.02"/><line class="cls-1" x1="439.45" y1="1007.02" x2="320.45" y2="774.02"/><line class="cls-1" x1="525.45" y1="835.02" x2="506.45" y2="644.02"/><line class="cls-1" x1="261.45" y1="674.02" x2="408.45" y2="684.02"/><line class="cls-1" x1="261.45" y1="673.02" x2="321.45" y2="774.02"/><line class="cls-1" x1="408.45" y1="684.02" x2="438.45" y2="1007.02"/><line class="cls-1" x1="408.45" y1="683.02" x2="321.45" y2="774.02"/><line class="cls-1" x1="251.45" y1="934.02" x2="322.45" y2="774.02"/><line class="cls-1" x1="261.45" y1="673.02" x2="449.45" y2="541.02"/><line class="cls-1" x1="506.45" y1="644.02" x2="262.45" y2="673.02"/><line class="cls-1" x1="408.45" y1="685.02" x2="449.45" y2="540.02"/><line class="cls-1" x1="449.45" y1="540.02" x2="559.45" y2="155.02"/><line class="cls-1" x1="449.45" y1="541.02" x2="598.45" y2="372.02"/><line class="cls-1" x1="598.45" y1="373.02" x2="559.45" y2="155.02"/><line class="cls-2" x1="439.45" y1="1007.02" x2="525.45" y2="835.02"/><line class="cls-1" x1="506.45" y1="644.02" x2="702" y2="614.78"/><line class="cls-1" x1="524.45" y1="835.02" x2="439.45" y2="1007.02"/><line class="cls-1" x1="320.45" y1="775.02" x2="292.34" y2="1130.21"/><line class="cls-1" x1="525.45" y1="834.02" x2="852.98" y2="779.93"/><line class="cls-1" x1="321.45" y1="774.02" x2="629.45" y2="710.02"/><line class="cls-1" x1="409.45" y1="684.02" x2="662.45" y2="713.02"/><line class="cls-1" x1="506.45" y1="644.02" x2="449.45" y2="540.02"/><line class="cls-1" x1="439.45" y1="1006.02" x2="661.45" y2="892.02"/><line class="cls-1" x1="523.45" y1="835.02" x2="773.82" y2="1039.27"/><line class="cls-1" x1="408.45" y1="684.02" x2="506.45" y2="644.02"/><line class="cls-1" x1="261.45" y1="673.02" x2="250.45" y2="933.02"/><line class="cls-1" x1="320.45" y1="774.02" x2="94.45" y2="1023.02"/><line class="cls-1" x1="251.45" y1="932.02" x2="392.45" y2="1052.02"/><line class="cls-1" x1="525.45" y1="835.02" x2="488.99" y2="1116.29"/><line class="cls-1" x1="506.45" y1="644.02" x2="812.42" y2="795.42"/><line class="cls-1" x1="526.45" y1="834.02" x2="628.45" y2="710.02"/><line class="cls-1" x1="506.45" y1="644.02" x2="666.82" y2="424.57"/><line class="cls-1" x1="449.45" y1="540.02" x2="671.22" y2="589.95"/><line class="cls-1" x1="525.45" y1="834.02" x2="549.45" y2="950.02"/><line class="cls-1" x1="321.45" y1="774.02" x2="30.45" y2="912.02"/><line class="cls-1" x1="251.45" y1="933.02" x2="-97.6" y2="597.24"/><line class="cls-1" x1="263.45" y1="673.02" x2="57.78" y2="1098"/><line class="cls-1" x1="251.45" y1="933.02" x2="-50.69" y2="1107.33"/><line class="cls-1" x1="261.45" y1="673.02" x2="-29.55" y2="975.02"/><line class="cls-1" x1="251.45" y1="932.02" x2="-95.4" y2="898.57"/><line class="cls-1" x1="261.45" y1="673.02" x2="-91.73" y2="813.86"/><line class="cls-1" x1="251.45" y1="932.02" x2="127.38" y2="1150.73"/><line class="cls-1" x1="93.45" y1="1025.02" x2="-30.55" y2="790.02"/><line class="cls-1" x1="261.45" y1="673.02" x2="-101.26" y2="627.02"/><line class="cls-1" x1="550.45" y1="949.02" x2="639.9" y2="1054.72"/><line class="cls-1" x1="448.45" y1="540.02" x2="691.74" y2="445.4"/><line class="cls-1" x1="-31.55" y1="385.02" x2="73.45" y2="1037.02"/><line class="cls-1" x1="93.45" y1="1024.02" x2="-107.13" y2="942.93"/><line class="cls-1" x1="559.45" y1="156.02" x2="686.14" y2="-183.88"/></svg>