<?xml version="1.0" encoding="utf-8"?>
<svg version="1.1" id="Layer_1" xmlns="http://www.w3.org/2000/svg" xmlns:xlink="http://www.w3.org/1999/xlink" x="0px" y="0px"
	 viewBox="0 0 960.7 577.2" style="enable-background:new 0 0 960.7 577.2;" xml:space="preserve">
<style type="text/css">
	.c0{fill:#fff;}
	.st0{fill:none;stroke:#fff;stroke-width:2;stroke-miterlimit:10;}
	.st1{fill:none;}
</style>
<circle class="c0" cx="200.6" cy="516.5" r="7"/>
<circle class="c0" cx="260.6" cy="312.5" r="7"/>
<circle class="c0" cx="361.6" cy="253.5" r="7"/>
<circle class="c0" cx="102.6" cy="242.5" r="7"/>
<circle class="c0" cx="28.6" cy="430.5" r="7"/>
<circle class="c0" cx="494.6" cy="440.5" r="7"/>
<circle class="c0" cx="879.6" cy="550.5" r="7"/>
<circle class="c0" cx="391.6" cy="497.5" r="7"/>
<circle class="c0" cx="351.6" cy="399.5" r="7"/>
<line class="st0" x1="199.6" y1="516.5" x2="103.6" y2="243.5"/>
<line class="st0" x1="200.6" y1="515.5" x2="259.6" y2="313.5"/>
<line class="st0" x1="199.6" y1="516.5" x2="350.6" y2="400.5"/>
<line class="st0" x1="28.6" y1="430.5" x2="102.6" y2="244.5"/>
<line class="st0" x1="27.6" y1="430.5" x2="260.6" y2="311.5"/>
<line class="st0" x1="199.6" y1="516.5" x2="390.6" y2="497.5"/>
<line class="st0" x1="360.6" y1="252.5" x2="350.6" y2="399.5"/>
<line class="st0" x1="361.6" y1="252.5" x2="260.6" y2="312.5"/>
<line class="st0" x1="350.6" y1="399.5" x2="27.6" y2="429.5"/>
<line class="st0" x1="351.6" y1="399.5" x2="260.6" y2="312.5"/>
<line class="st0" x1="100.6" y1="242.5" x2="260.6" y2="313.5"/>
<line class="st0" x1="361.6" y1="252.5" x2="493.6" y2="440.5"/>
<line class="st0" x1="390.6" y1="497.5" x2="361.6" y2="253.5"/>
<line class="st0" x1="349.6" y1="399.5" x2="494.6" y2="440.5"/>
<line class="st0" x1="494.6" y1="440.5" x2="879.6" y2="550.5"/>
<line class="st0" x1="493.6" y1="440.5" x2="662.6" y2="589.5"/>
<line class="st0" x1="661.6" y1="589.5" x2="879.6" y2="550.5"/>
<line class="st1" x1="27.6" y1="430.5" x2="199.6" y2="516.5"/>
<line class="st0" x1="390.6" y1="497.5" x2="419.9" y2="693.1"/>
<line class="st0" x1="199.6" y1="515.5" x2="27.6" y2="430.5"/>
<line class="st0" x1="259.6" y1="311.5" x2="-95.6" y2="283.4"/>
<line class="st0" x1="200.6" y1="516.5" x2="254.7" y2="844"/>
<line class="st0" x1="260.6" y1="312.5" x2="324.6" y2="620.5"/>
<line class="st0" x1="350.6" y1="400.5" x2="321.6" y2="653.5"/>
<line class="st0" x1="390.6" y1="497.5" x2="494.6" y2="440.5"/>
<line class="st0" x1="28.6" y1="430.5" x2="142.6" y2="652.5"/>
<line class="st0" x1="199.6" y1="514.5" x2="-4.6" y2="764.9"/>
<line class="st0" x1="350.6" y1="399.5" x2="390.6" y2="497.5"/>
<line class="st0" x1="361.6" y1="252.5" x2="101.6" y2="241.5"/>
<line class="st0" x1="260.6" y1="311.5" x2="11.6" y2="85.5"/>
<line class="st0" x1="27.6" y1="432.5" x2="-78.1" y2="312"/>
<line class="st0" x1="102.6" y1="242.5" x2="-17.4" y2="383.5"/>
<line class="st0" x1="199.6" y1="516.5" x2="-81.7" y2="480.1"/>
<line class="st0" x1="390.6" y1="497.5" x2="239.2" y2="803.5"/>
<line class="st0" x1="200.6" y1="517.5" x2="324.6" y2="619.5"/>
<line class="st0" x1="390.6" y1="497.5" x2="610.1" y2="657.9"/>
<line class="st0" x1="494.6" y1="440.5" x2="444.7" y2="662.3"/>
<line class="st0" x1="27.6" y1="430.5" x2="-113.9" y2="539.7"/>
<line class="st0" x1="200.6" y1="516.5" x2="84.6" y2="540.5"/>
<line class="st0" x1="260.6" y1="312.5" x2="122.6" y2="21.5"/>
<line class="st0" x1="101.6" y1="242.5" x2="437.4" y2="-106.5"/>
<line class="st0" x1="361.6" y1="254.5" x2="-63.4" y2="48.8"/>
<line class="st0" x1="101.6" y1="242.5" x2="-72.7" y2="-59.6"/>
<line class="st0" x1="361.6" y1="252.5" x2="59.6" y2="-38.5"/>
<line class="st0" x1="102.6" y1="242.5" x2="136.1" y2="-104.3"/>
<line class="st0" x1="361.6" y1="252.5" x2="220.8" y2="-100.7"/>
<line class="st0" x1="102.6" y1="242.5" x2="-116.1" y2="118.4"/>
<line class="st0" x1="9.6" y1="84.5" x2="244.6" y2="-39.5"/>
<line class="st0" x1="361.6" y1="252.5" x2="407.6" y2="-110.2"/>
<line class="st0" x1="85.6" y1="541.5" x2="-20.1" y2="631"/>
<line class="st0" x1="494.6" y1="439.5" x2="589.2" y2="682.8"/>
<line class="st0" x1="649.6" y1="-40.5" x2="-2.4" y2="64.5"/>
<line class="st0" x1="10.6" y1="84.5" x2="91.7" y2="-116.1"/>
<line class="st0" x1="878.6" y1="550.5" x2="1218.5" y2="677.2"/>
</svg>
